<?xml version="1.0" encoding="iso-8859-1"?>
<!-- Generator: Adobe Illustrator 19.0.0, SVG Export Plug-In . SVG Version: 6.00 Build 0)  -->
<svg version="1.1" id="Layer_1" xmlns="http://www.w3.org/2000/svg" xmlns:xlink="http://www.w3.org/1999/xlink" x="0px" y="0px"
	 viewBox="0 0 512 512" style="enable-background:new 0 0 512 512;" xml:space="preserve">
<g>
	<g>
		<path d="M471.667,340.552c0.045,0,0.091,0.004,0.136,0.004c0.033,0,0.064-0.004,0.097-0.004h24.284
			c8.734,0,15.815-7.081,15.815-15.816s-7.081-15.815-15.815-15.815h-4.749c9.95-52.124,8.634-106.294-3.976-157.87l-0.305-1.247
			c-1.731-7.08-8.075-12.06-15.363-12.06h-75.586v-5.674c0-8.734-7.081-15.815-15.816-15.815s-15.815,7.081-15.815,15.815v5.674
			h-69.879c0.022-0.34,0.052-0.677,0.052-1.023c0-8.734-7.081-15.815-15.815-15.815h-45.864c-8.734,0-15.816,7.081-15.816,15.815
			c0,0.345,0.03,0.683,0.052,1.023h-69.878v-5.674c0-8.734-7.081-15.815-15.816-15.815s-15.815,7.081-15.815,15.815v5.674H40.208
			c-7.286,0-13.629,4.978-15.362,12.055l-0.307,1.253c-12.61,51.578-13.927,105.748-3.976,157.87h-4.748
			C7.081,308.921,0,316.003,0,324.737s7.081,15.816,15.815,15.816h52.541c0.099,8.683,2.72,16.768,7.163,23.561H31.305
			c-8.734,0-15.815,7.081-15.815,15.815s7.081,15.815,15.815,15.815h449.39c8.734,0,15.816-7.081,15.816-15.815
			s-7.081-15.815-15.816-15.815H436.48c4.443-6.793,7.064-14.877,7.163-23.561H471.667z M147.426,169.376h217.148v139.546h0H147.426
			V169.376z M52.82,308.921c-9.619-45.878-9.629-93.668-0.008-139.546h62.984v139.546H52.82z M150.777,352.512
			c-3.138,0-6.136-1.171-8.445-3.3c-3.028-2.792-6.875-4.189-10.721-4.189c-3.845,0-7.693,1.396-10.72,4.188
			c-2.309,2.129-5.309,3.301-8.445,3.301c-6.704,0-12.174-5.321-12.444-11.96h63.219C162.95,347.191,157.48,352.512,150.777,352.512
			z M187.701,364.113c4.443-6.793,7.064-14.878,7.163-23.561h122.271c0.099,8.683,2.72,16.768,7.163,23.561H187.701z
			 M399.556,352.512c-3.139,0-6.136-1.171-8.444-3.3c-3.029-2.792-6.876-4.189-10.722-4.189c-3.845,0-7.693,1.396-10.721,4.188
			c-2.308,2.129-5.308,3.301-8.447,3.301c-6.703,0-12.173-5.321-12.444-11.96h63.22
			C411.729,347.191,406.258,352.512,399.556,352.512z M396.204,308.921V169.376h62.983c9.622,45.879,9.612,93.667-0.006,139.546
			H396.204z"/>
	</g>
</g>
<g>
</g>
<g>
</g>
<g>
</g>
<g>
</g>
<g>
</g>
<g>
</g>
<g>
</g>
<g>
</g>
<g>
</g>
<g>
</g>
<g>
</g>
<g>
</g>
<g>
</g>
<g>
</g>
<g>
</g>
</svg>
